<svg width="1440" height="31" viewBox="0 0 1440 31" fill="none" xmlns="http://www.w3.org/2000/svg">
<path d="M24.3413 13.5904H10.2076H0V31H658L645.437 13.5904C643.866 12.5899 639.783 10.5888 636.014 10.5888H614.029C603.821 10.5888 611.673 13.5904 603.036 13.5904C596.126 13.5904 594.922 15.9917 595.184 17.1924C590.473 16.5921 580.579 15.0312 578.695 13.5904L572.413 8.78779L566.131 10.5888L559.85 8.78779C558.541 8.78779 555.295 9.14799 552.783 10.5888C549.642 12.3898 547.286 8.78779 540.22 8.78779C533.153 8.78779 524.516 3.98515 518.234 1.58383C511.952 -0.817494 503.315 -0.217164 497.033 1.58383C490.752 3.38482 490.752 5.78614 484.47 8.78779C478.189 11.7894 472.692 8.78779 470.337 8.78779C467.981 8.78779 460.129 7.58713 453.847 10.5888C447.566 13.5904 450.706 15.3914 445.21 17.1924C439.714 18.9934 435.002 15.3914 429.506 15.3914C424.01 15.3914 415.372 15.3914 405.95 13.5904C396.527 11.7894 393.387 10.5888 386.32 10.5888C379.253 10.5888 377.683 13.5904 368.26 13.5904C358.838 13.5904 361.979 17.1924 354.912 17.1924H335.282C329.785 17.1924 325.859 19.5937 321.148 17.1924C316.437 14.7911 311.726 15.3914 302.303 15.3914C292.881 15.3914 276.391 13.5904 274.036 10.5888C271.68 7.58712 253.621 10.5888 241.842 10.5888C230.064 10.5888 236.346 10.5888 224.568 13.5904C212.79 16.5921 204.938 10.5888 197.871 10.5888C190.804 10.5888 191.589 13.5904 184.523 15.3914C178.869 16.8322 165.94 15.9917 160.181 15.3914C155.208 13.7905 140.551 11.1891 121.706 13.5904C98.1504 16.5921 108.358 13.5904 102.076 13.5904C95.7947 13.5904 81.6611 13.5904 68.3127 15.3914C54.9642 17.1924 37.6897 11.1891 29.8377 10.5888C21.9857 9.98844 26.6969 13.5904 24.3413 13.5904Z" fill="#211805"/>
<path d="M673.341 13.5904H659.208H649V31H1307L1294.44 13.5904C1292.87 12.5899 1288.78 10.5888 1285.01 10.5888H1263.03C1252.82 10.5888 1260.67 13.5904 1252.04 13.5904C1245.13 13.5904 1243.92 15.9917 1244.18 17.1924C1239.47 16.5921 1229.58 15.0312 1227.69 13.5904L1221.41 8.78779L1215.13 10.5888L1208.85 8.78779C1207.54 8.78779 1204.3 9.14799 1201.78 10.5888C1198.64 12.3898 1196.29 8.78779 1189.22 8.78779C1182.15 8.78779 1173.52 3.98515 1167.23 1.58383C1160.95 -0.817494 1152.32 -0.217164 1146.03 1.58383C1139.75 3.38482 1139.75 5.78614 1133.47 8.78779C1127.19 11.7894 1121.69 8.78779 1119.34 8.78779C1116.98 8.78779 1109.13 7.58713 1102.85 10.5888C1096.57 13.5904 1099.71 15.3914 1094.21 17.1924C1088.71 18.9934 1084 15.3914 1078.51 15.3914C1073.01 15.3914 1064.37 15.3914 1054.95 13.5904C1045.53 11.7894 1042.39 10.5888 1035.32 10.5888C1028.25 10.5888 1026.68 13.5904 1017.26 13.5904C1007.84 13.5904 1010.98 17.1924 1003.91 17.1924H984.282C978.785 17.1924 974.859 19.5937 970.148 17.1924C965.437 14.7911 960.726 15.3914 951.303 15.3914C941.881 15.3914 925.391 13.5904 923.036 10.5888C920.68 7.58712 902.621 10.5888 890.842 10.5888C879.064 10.5888 885.346 10.5888 873.568 13.5904C861.79 16.5921 853.938 10.5888 846.871 10.5888C839.804 10.5888 840.589 13.5904 833.523 15.3914C827.869 16.8322 814.94 15.9917 809.181 15.3914C804.208 13.7905 789.551 11.1891 770.706 13.5904C747.15 16.5921 757.358 13.5904 751.076 13.5904C744.795 13.5904 730.661 13.5904 717.313 15.3914C703.964 17.1924 686.69 11.1891 678.838 10.5888C670.986 9.98844 675.697 13.5904 673.341 13.5904Z" fill="#211805"/>
<path d="M1322.34 13.5904H1308.21H1298V31H1956L1943.44 13.5904C1941.87 12.5899 1937.78 10.5888 1934.01 10.5888H1912.03C1901.82 10.5888 1909.67 13.5904 1901.04 13.5904C1894.13 13.5904 1892.92 15.9917 1893.18 17.1924C1888.47 16.5921 1878.58 15.0312 1876.69 13.5904L1870.41 8.78779L1864.13 10.5888L1857.85 8.78779C1856.54 8.78779 1853.3 9.14799 1850.78 10.5888C1847.64 12.3898 1845.29 8.78779 1838.22 8.78779C1831.15 8.78779 1822.52 3.98515 1816.23 1.58383C1809.95 -0.817494 1801.32 -0.217164 1795.03 1.58383C1788.75 3.38482 1788.75 5.78614 1782.47 8.78779C1776.19 11.7894 1770.69 8.78779 1768.34 8.78779C1765.98 8.78779 1758.13 7.58713 1751.85 10.5888C1745.57 13.5904 1748.71 15.3914 1743.21 17.1924C1737.71 18.9934 1733 15.3914 1727.51 15.3914C1722.01 15.3914 1713.37 15.3914 1703.95 13.5904C1694.53 11.7894 1691.39 10.5888 1684.32 10.5888C1677.25 10.5888 1675.68 13.5904 1666.26 13.5904C1656.84 13.5904 1659.98 17.1924 1652.91 17.1924H1633.28C1627.79 17.1924 1623.86 19.5937 1619.15 17.1924C1614.44 14.7911 1609.73 15.3914 1600.3 15.3914C1590.88 15.3914 1574.39 13.5904 1572.04 10.5888C1569.68 7.58712 1551.62 10.5888 1539.84 10.5888C1528.06 10.5888 1534.35 10.5888 1522.57 13.5904C1510.79 16.5921 1502.94 10.5888 1495.87 10.5888C1488.8 10.5888 1489.59 13.5904 1482.52 15.3914C1476.87 16.8322 1463.94 15.9917 1458.18 15.3914C1453.21 13.7905 1438.55 11.1891 1419.71 13.5904C1396.15 16.5921 1406.36 13.5904 1400.08 13.5904C1393.79 13.5904 1379.66 13.5904 1366.31 15.3914C1352.96 17.1924 1335.69 11.1891 1327.84 10.5888C1319.99 9.98844 1324.7 13.5904 1322.34 13.5904Z" fill="#211805"/>
</svg>
