<svg width="1440" height="31" viewBox="0 0 1440 31" fill="none" xmlns="http://www.w3.org/2000/svg">
<path d="M24.3413 13.5904H10.2076L0 14V31H658L645.437 13.5904C643.866 12.5899 639.783 10.5888 636.014 10.5888H614.029C603.821 10.5888 611.673 13.5904 603.036 13.5904C596.126 13.5904 594.922 15.9917 595.184 17.1924C590.473 16.5921 580.579 15.0312 578.695 13.5904C576.81 12.1496 573.309 13.0005 572 12L566.131 10.5888L559.85 8.78779C558.541 8.78779 555.295 9.14799 552.783 10.5888C549.642 12.3898 547.286 8.78779 540.22 8.78779C533.153 8.78779 524.516 3.98515 518.234 1.58383C511.952 -0.817494 503.315 -0.217164 497.033 1.58383C490.752 3.38482 490.752 5.78614 484.47 8.78779C478.189 11.7894 472.692 8.78779 470.337 8.78779C467.981 8.78779 460.129 7.58713 453.847 10.5888C447.566 13.5904 450.706 15.3914 445.21 17.1924C439.714 18.9934 431.996 17.1924 426.5 17.1924C421.004 17.1924 415.372 15.3914 405.95 13.5904C396.527 11.7894 393.387 10.5888 386.32 10.5888C379.253 10.5888 377.683 13.5904 368.26 13.5904C358.838 13.5904 361.979 17.1924 354.912 17.1924H335.282C329.785 17.1924 325.859 19.5937 321.148 17.1924C316.437 14.7911 311.726 15.3914 302.303 15.3914C292.881 15.3914 276.391 13.5904 274.036 10.5888C271.68 7.58712 253.621 10.5888 241.842 10.5888C230.064 10.5888 236.346 10.5888 224.568 13.5904C212.79 16.5921 204.938 10.5888 197.871 10.5888C190.804 10.5888 191.59 13.5904 184.523 15.3914C178.869 16.8322 165.94 15.9917 160.181 15.3914C155.208 13.7905 140.551 11.1891 121.706 13.5904C98.1504 16.5921 108.358 13.5904 102.076 13.5904C95.7947 13.5904 81.6611 13.5904 68.3127 15.3914C54.9642 17.1924 37.6897 11.1891 29.8377 10.5888C21.9857 9.98844 26.6969 13.5904 24.3413 13.5904Z" fill="#211805"/>
<path d="M707.341 15.3914C701.688 16.8322 688.758 17.7927 683 17.1924V31H931.909H1180.82V12.5C1179.25 11.4995 1162.6 10.5888 1158.83 10.5888C1154.12 10.5888 1151.21 15.3914 1141 15.3914C1130.79 15.3914 1134.49 13.5904 1125.85 13.5904C1118.94 13.5904 1117.74 15.9918 1118 17.1924C1113.29 16.5921 1120.5 17.1924 1110.5 17.1924C1108.13 17.1924 1097.81 16.392 1096.5 15.3914L1091 12.5H1083.5C1082.19 12.5 1078.47 10.9998 1075.6 10.5888C1063.04 8.78779 1070.1 8.78779 1063.04 8.78779C1055.97 8.78779 1049 13.5904 1041 8.78775C1035.23 5.32636 1028 6.00003 1021.5 6.00003C1014.97 6.00002 1013.57 5.78614 1007.29 8.78779C1001.01 11.7894 995.356 10.5888 993 10.5888C990.644 10.5888 983.5 10.5888 978 12.5C971.424 14.7852 973.525 15.3914 968.029 17.1924C962.532 18.9934 957.821 15.3914 952.325 15.3914C946.828 15.3914 938.191 15.3914 928.769 13.5904C919.346 11.7894 917.067 13.5904 910 13.5904H891.079C881.656 13.5904 884.797 17.1924 877.73 17.1924H858.1C852.604 17.1924 848.678 19.5937 843.967 17.1924C839.255 14.7911 834.544 15.3914 825.122 15.3914C815.699 15.3914 801.5 1 797 8.78779C795.091 12.0915 778.278 15.3914 766.5 15.3914C754.722 15.3914 759.165 10.5888 747.387 13.5904C735.609 16.5921 727.757 10.5888 720.69 10.5888C713.623 10.5888 714.408 13.5904 707.341 15.3914Z" fill="#211805"/>
<path d="M679.718 17.1924C685.215 17.1924 689.141 19.5937 693.852 17.1924L690.5 25L686 31H357L369.563 13.5904C371.134 12.5899 374.231 12.5 378 12.5C382.711 12.5 390.764 10.5888 400.971 10.5888C411.179 10.5888 403.327 13.5904 411.964 13.5904C418.874 13.5904 422.262 16.7993 422 18C427 22.5 431.5 15.5 435 15.5C437.372 15.5 439.5 13.5904 443 12.5L448.869 10.5888L455.15 8.78779C456.459 8.78779 459.705 9.14799 462.217 10.5888C465.358 12.3898 467.714 8.78779 474.78 8.78779C481.847 8.78779 490.485 3.98515 496.766 1.58383C503.048 -0.817494 511.685 -0.217164 517.967 1.58383C524.248 3.38482 524.248 5.78614 530.53 8.78779C536.811 11.7894 542.308 8.78779 544.664 8.78779C547.019 8.78779 554.871 7.58713 561.153 10.5888C567.434 13.5904 564.294 15.3914 569.79 17.1924C575.286 18.9934 579.998 15.3914 585.494 15.3914C590.991 15.3914 599.628 15.3914 609.05 13.5904C618.473 11.7894 621.613 10.5888 628.68 10.5888C635.747 10.5888 637.317 13.5904 646.74 13.5904C656.162 13.5904 653.022 17.1924 660.088 17.1924H679.718Z" fill="#211805"/>
<path d="M1425.15 13.3865C1426.3 13.3865 1429.61 10.3497 1432 10.3497L1440 14V31H1178L1178.5 12C1181.85 12 1186.6 11.7381 1192.37 13.3865C1198.74 15.2086 1199.92 15.2086 1204.23 15.2086C1208.54 15.2086 1209.61 13.3865 1215.36 13.3865C1221.11 13.3865 1219.19 17.0307 1223.5 17.0307H1235.48C1238.83 17.0307 1241.22 19.4601 1244.1 17.0307C1246.97 14.6012 1249.85 15.2086 1255.59 15.2086C1261.34 15.2086 1269.48 10.3497 1272.84 10.3497H1292.48C1299.66 10.3497 1295.83 10.3497 1303.01 13.3865C1310.2 16.4233 1314.19 12 1318.5 12C1322.81 12 1323.13 13.3865 1327.44 15.2086C1330.89 16.6663 1338.78 15.816 1342.29 15.2086C1345.32 13.589 1354.26 10.9571 1365.76 13.3865C1380.13 16.4233 1374.74 15.7729 1377.73 13.3865C1384.5 7.99998 1390.19 13.3865 1398.33 15.2086C1406.47 17.0307 1410.71 15.816 1415.5 15.2086C1420.29 14.6013 1423.71 13.3865 1425.15 13.3865Z" fill="#211805"/>
</svg>
